<?xml version="1.0" encoding="utf-8"?>
<!-- Generator: Adobe Illustrator 27.4.0, SVG Export Plug-In . SVG Version: 6.00 Build 0)  -->
<svg version="1.1" id="Layer_4" xmlns="http://www.w3.org/2000/svg" xmlns:xlink="http://www.w3.org/1999/xlink" x="0px" y="0px"
	 viewBox="0 0 500 500" style="enable-background:new 0 0 500 500;" xml:space="preserve">
<style type="text/css">
	.st0{fill:#0D2DA2;}
	.st1{fill:#EEF2EE;}
	.st2{fill:#FDFFFD;}
	.st3{fill:#F5F7F5;}
</style>
<rect x="-125" y="-131" class="st0" width="756" height="756"/>
<g>
	<polygon class="st1" points="303.7,378 327.5,364.5 391.2,328.5 391.2,302.1 327.5,338.1 327.5,293.9 391.2,257.3 430.6,234.6 
		430.6,351.8 391.2,373.5 251.5,450.6 253,247.8 303.7,219.1 327.5,205.7 391.2,169.7 430.6,147.4 430.6,205.4 391.2,228.2 
		327.5,265.1 303.7,278.9 	"/>
	<polygon class="st2" points="253,247.8 251.5,450.6 195.3,418.6 195.3,417.6 124.8,269.1 124.8,378.3 75.4,350.2 75.4,147.4 
		124.8,175.3 135.4,181.3 195.3,325.5 195.3,215.2 	"/>
	<path class="st3" d="M255.1,43.4l-179.6,104l49.4,27.9l10.6,6l60,33.9l57.7,32.6l177.6-100.4L255.1,43.4z M253,52.7l109.4,62.9
		l-35.3,21.2L285,119.4c2.6-1.5,5.1-3,7.7-4.4c4.3-3.9,4.8-10.4,1.5-14.7c-3.6-4.7-10.8-5.6-15.7-1.5c-11.4,6.6-22.8,13.2-34.2,19.7
		l-52.7-30.3L253,52.7z M88.3,147.9l95.5-55.2l52.7,30.3c-13.9,8-27.9,16.1-41.8,24.1c-3.8,4.3-3.9,10.6-0.5,14.7
		c2.8,3.4,7.6,4.7,12.1,3.3c5.7-3.3,11.4-6.6,17.1-9.9l1.7,15.1l-8.3,1.3l9.9,12.4v0l1.4,12.2l-25.4,15.2L88.3,147.9z M210.2,215.7
		l18.7-11.3l6.7-4.1l-0.8-8.1l-0.9-8.7l5.8-15.5l-7.2,1.1l-1.8-18.1c9-5.2,18.1-10.5,27.1-15.7c2.6-1.5,5.2-3,7.8-4.5
		c4.4-2.5,8.7-5.1,13-7.6l41.7,17.7l7.8,3.3l6.9-4.2l34-20.7l45.7,26.3L253,239.5L210.2,215.7z"/>
</g>
</svg>
